<svg height="1024" viewBox="0 0 1024 1024" width="1024" xmlns="http://www.w3.org/2000/svg" xmlns:xlink="http://www.w3.org/1999/xlink"><linearGradient id="a" x1="0" x2="0" y1="0" y2="1"><stop offset="0" stop-color="#e8956f"/><stop offset="1" stop-color="#d06845"/></linearGradient><linearGradient id="b" x1="0" x2="0" y1="0" y2="1"><stop offset="0" stop-color="#fff" stop-opacity=".12"/><stop offset=".4" stop-color="#fff" stop-opacity="0"/><stop offset="1" stop-opacity=".08"/></linearGradient><path d="m1024 512-.3 157.3-.8 50.2-1.4 36.3-2 29.4-2.6 25-3.1 21.9-3.7 19.5-4.3 17.7-4.9 16-5.5 14.7-6.2 13.5-6.8 12.5-7.5 11.4-8.2 10.6-9 9.7-9.7 9-10.6 8.2-11.4 7.5-12.5 6.8-13.5 6.2-14.7 5.5-16 4.9-17.7 4.3-19.5 3.7-21.9 3.1-25 2.6-29.4 2-36.3 1.4-50.2.8-157.3.3-157.3-.3-50.2-.8-36.3-1.4-29.4-2-25-2.6-21.9-3.1-19.5-3.7-17.7-4.3-16-4.9-14.7-5.5-13.5-6.2-12.5-6.8-11.4-7.5-10.6-8.2-9.7-9-9-9.7-8.2-10.6-7.5-11.4-6.8-12.5-6.2-13.5-5.5-14.7-4.9-16-4.3-17.7-3.7-19.5-3.1-21.9-2.6-25-2-29.4-1.4-36.3-.8-50.2-.3-157.3.3-157.3.8-50.2 1.4-36.3 2-29.4 2.6-25 3.1-21.9 3.7-19.5 4.3-17.7 4.9-16 5.5-14.7 6.2-13.5 6.8-12.5 7.5-11.4 8.2-10.6 9-9.7 9.7-9 10.6-8.2 11.4-7.5 12.5-6.8 13.5-6.2 14.7-5.5 16-4.9 17.7-4.3 19.5-3.7 21.9-3.1 25-2.6 29.4-2 36.3-1.4 50.2-.8 157.3-.3 157.3.3 50.2.8 36.3 1.4 29.4 2 25 2.6 21.9 3.1 19.5 3.7 17.7 4.3 16 4.9 14.7 5.5 13.5 6.2 12.5 6.8 11.4 7.5 10.6 8.2 9.7 9 9 9.7 8.2 10.6 7.5 11.4 6.8 12.5 6.2 13.5 5.5 14.7 4.9 16 4.3 17.7 3.7 19.5 3.1 21.9 2.6 25 2 29.4 1.4 36.3.8 50.2z" fill="url(#a)"/><path d="m1024 512-.3 157.3-.8 50.2-1.4 36.3-2 29.4-2.6 25-3.1 21.9-3.7 19.5-4.3 17.7-4.9 16-5.5 14.7-6.2 13.5-6.8 12.5-7.5 11.4-8.2 10.6-9 9.7-9.7 9-10.6 8.2-11.4 7.5-12.5 6.8-13.5 6.2-14.7 5.5-16 4.9-17.7 4.3-19.5 3.7-21.9 3.1-25 2.6-29.4 2-36.3 1.4-50.2.8-157.3.3-157.3-.3-50.2-.8-36.3-1.4-29.4-2-25-2.6-21.9-3.1-19.5-3.7-17.7-4.3-16-4.9-14.7-5.5-13.5-6.2-12.5-6.8-11.4-7.5-10.6-8.2-9.7-9-9-9.7-8.2-10.6-7.5-11.4-6.8-12.5-6.2-13.5-5.5-14.7-4.9-16-4.3-17.7-3.7-19.5-3.1-21.9-2.6-25-2-29.4-1.4-36.3-.8-50.2-.3-157.3.3-157.3.8-50.2 1.4-36.3 2-29.4 2.6-25 3.1-21.9 3.7-19.5 4.3-17.7 4.9-16 5.5-14.7 6.2-13.5 6.8-12.5 7.5-11.4 8.2-10.6 9-9.7 9.7-9 10.6-8.2 11.4-7.5 12.5-6.8 13.5-6.2 14.7-5.5 16-4.9 17.7-4.3 19.5-3.7 21.9-3.1 25-2.6 29.4-2 36.3-1.4 50.2-.8 157.3-.3 157.3.3 50.2.8 36.3 1.4 29.4 2 25 2.6 21.9 3.1 19.5 3.7 17.7 4.3 16 4.9 14.7 5.5 13.5 6.2 12.5 6.8 11.4 7.5 10.6 8.2 9.7 9 9 9.7 8.2 10.6 7.5 11.4 6.8 12.5 6.2 13.5 5.5 14.7 4.9 16 4.3 17.7 3.7 19.5 3.1 21.9 2.6 25 2 29.4 1.4 36.3.8 50.2z" fill="url(#b)"/><text style="text-anchor:middle;font-family:'SF Mono', 'Menlo', 'Courier New', 'Courier', monospace;font-size:330;font-weight:700;fill:#fff;letter-spacing:25" x="512" y="430">vu</text><path d="m230 620c0 260 564 260 564 0" fill="none" stroke="#fff" stroke-linecap="round" stroke-width="50"/></svg>